# xmcd
#
# Track frame offsets: 
#        150
#        11149
#        27193
#        38886
#        52217
#        62182
#        73362
#        86526
#        100284
#        111863
#        123299
#        134414
#        147087
#        159297
#        169532
#        180157
#        191448
#        202398
#        213813
#        224146
#        234311
#        247844
#        261063
#        272111
#        283279
#
# Disc length: 3987 seconds
#
# Revision: 0
# Processed by: cddbd v1.5.1PL2 Copyright (c) Steve Scherf et al.
# Submitted via: ExactAudioCopy v0.95b1
#
DISCID=7b0f9119
DTITLE=Tammy Wynette - First Lady and We Sure Can Love Each Other
DYEAR=1900
DGENRE=Country
TTITLE0=Run, Woman, Run
TTITLE1=I Wish I Had A Mommy Like You
TTITLE2=True and Lasting Love
TTITLE3=I Never Once Stopped Loving You
TTITLE4=Safe In These Loving Arms Of Mine
TTITLE5=Sally Trash
TTITLE6=My Daddy Doll
TTITLE7=The Lovin' Kind
TTITLE8=He's Still My Man
TTITLE9=Buy Me A Daddy
TTITLE10=Playin' Around With Love
TTITLE11=We Sure Can Love Each Other
TTITLE12=The Joy of Being A Woman
TTITLE13=He Knows All the Ways to Love
TTITLE14=Make Me Your Kind of Woman
TTITLE15=Don't Liberate Me (Love Me)
TTITLE16=Bring Him Safely Home to Me
TTITLE17=The Only Thing
TTITLE18=Longing To Hold You Again
TTITLE19=Have a Little Faith
TTITLE20=If You Think I Love You Know
TTITLE21=Baby Come Home
TTITLE22=Fun
TTITLE23=The Only Time I'm Really Me
TTITLE24=The Wonders You Perform
EXTD=
EXTT0=
EXTT1=
EXTT2=
EXTT3=
EXTT4=
EXTT5=
EXTT6=
EXTT7=
EXTT8=
EXTT9=
EXTT10=
EXTT11=
EXTT12=
EXTT13=
EXTT14=
EXTT15=
EXTT16=
EXTT17=
EXTT18=
EXTT19=
EXTT20=
EXTT21=
EXTT22=
EXTT23=
EXTT24=
PLAYORDER=
